<svg xmlns="http://www.w3.org/2000/svg" viewBox="0 0 256 256" fill="none">
  <rect width="256" height="256" rx="60" fill="#3178C6"/>
  <path d="M150.458 222.253V197.617H174.803V159.2H131.842V138.667H174.803V104H150.458V79.36H174.803V52H211.615V222.253H150.458Z" fill="white"/>
  <path d="M53.253 222.253C46.613 218.56 41.813 213.76 38.853 207.84C35.893 201.84 34.413 194.88 34.413 186.96V159.2H63.733V183.36C63.733 189.6 64.933 194.24 67.333 197.28C69.733 200.32 72.933 201.84 76.933 201.84C81.013 201.84 84.293 200.32 86.773 197.28C89.253 194.16 90.493 189.6 90.493 183.6V104H119.653V186.96C119.653 194.88 118.133 201.84 115.093 207.84C112.053 213.76 107.173 218.56 100.453 222.253C93.733 225.947 85.813 227.787 76.693 227.787C67.493 227.787 59.893 225.947 53.253 222.253Z" fill="white"/>
</svg>
