<svg xmlns="http://www.w3.org/2000/svg" viewBox="0 0 256 256" fill="none">
  <rect width="256" height="256" rx="60" fill="#F7DF1E"/>
  <path d="M67.3117 213.517L86.7067 202.438C90.8347 210.064 94.5897 216.468 104.369 216.468C113.589 216.468 119.189 212.239 119.189 200.031V118.411H143.619V200.251C143.619 225.468 128.593 237.476 105.247 237.476C84.0787 237.476 72.7787 226.493 67.3117 213.517" fill="black"/>
  <path d="M152.975 211.177L172.37 200.51C177.364 209.286 184.588 215.622 197.11 215.622C207.593 215.622 214.286 210.323 214.286 203.107C214.286 194.552 207.059 191.536 193.988 186.133L186.365 183.147C165.682 175.318 153.214 164.363 153.214 142.109C153.214 121.131 169.657 104.734 197.044 104.734C216.654 104.734 230.444 111.573 240.046 128.898L221.446 140.206C217.273 131.623 210.047 127.396 197.044 127.396C185.812 127.396 179.406 132.774 179.406 140.206C179.406 147.638 185.812 151.554 198.175 156.727L205.798 159.713C229.953 169.071 242.419 179.687 242.419 202.549C242.419 226.903 222.577 240.28 197.702 240.28C169.103 240.28 154.143 227.484 147.52 211.177" fill="black"/>
</svg>
